G75*
%MOIN*%
%OFA0B0*%
%FSLAX24Y24*%
%IPPOS*%
%LPD*%
%AMOC8*
5,1,8,0,0,1.08239X$1,22.5*
%
%ADD10C,0.0000*%
%ADD11R,0.1221X0.0591*%
%ADD12R,0.0631X0.0552*%
%ADD13R,0.0512X0.0512*%
%ADD14C,0.2340*%
%ADD15R,0.0552X0.0631*%
%ADD16C,0.0820*%
%ADD17R,0.0434X0.0591*%
%ADD18C,0.0865*%
%ADD19R,0.0840X0.0300*%
%ADD20C,0.0640*%
%ADD21OC8,0.0560*%
%ADD22C,0.2481*%
%ADD23R,0.1240X0.0490*%
%ADD24R,0.0555X0.0555*%
%ADD25OC8,0.0555*%
%ADD26C,0.1540*%
%ADD27R,0.1440X0.0540*%
%ADD28R,0.0300X0.0840*%
%ADD29R,0.0500X0.0670*%
%ADD30R,0.0670X0.0500*%
%ADD31C,0.0453*%
D10*
X000100Y002000D02*
X000100Y037231D01*
X000102Y037317D01*
X000107Y037403D01*
X000117Y037488D01*
X000130Y037573D01*
X000147Y037657D01*
X000167Y037741D01*
X000191Y037823D01*
X000219Y037904D01*
X000250Y037985D01*
X000284Y038063D01*
X000322Y038140D01*
X000364Y038216D01*
X000408Y038289D01*
X000456Y038360D01*
X000507Y038430D01*
X000561Y038497D01*
X000617Y038561D01*
X000677Y038623D01*
X000739Y038683D01*
X000803Y038739D01*
X000870Y038793D01*
X000940Y038844D01*
X001011Y038892D01*
X001085Y038936D01*
X001160Y038978D01*
X001237Y039016D01*
X001315Y039050D01*
X001396Y039081D01*
X001477Y039109D01*
X001559Y039133D01*
X001643Y039153D01*
X001727Y039170D01*
X001812Y039183D01*
X001897Y039193D01*
X001983Y039198D01*
X002069Y039200D01*
X037231Y039200D01*
X037317Y039198D01*
X037403Y039193D01*
X037488Y039183D01*
X037573Y039170D01*
X037657Y039153D01*
X037741Y039133D01*
X037823Y039109D01*
X037904Y039081D01*
X037985Y039050D01*
X038063Y039016D01*
X038140Y038978D01*
X038216Y038936D01*
X038289Y038892D01*
X038360Y038844D01*
X038430Y038793D01*
X038497Y038739D01*
X038561Y038683D01*
X038623Y038623D01*
X038683Y038561D01*
X038739Y038497D01*
X038793Y038430D01*
X038844Y038360D01*
X038892Y038289D01*
X038936Y038216D01*
X038978Y038140D01*
X039016Y038063D01*
X039050Y037985D01*
X039081Y037904D01*
X039109Y037823D01*
X039133Y037741D01*
X039153Y037657D01*
X039170Y037573D01*
X039183Y037488D01*
X039193Y037403D01*
X039198Y037317D01*
X039200Y037231D01*
X039200Y002069D01*
X039198Y001983D01*
X039193Y001897D01*
X039183Y001812D01*
X039170Y001727D01*
X039153Y001643D01*
X039133Y001559D01*
X039109Y001477D01*
X039081Y001396D01*
X039050Y001315D01*
X039016Y001237D01*
X038978Y001160D01*
X038936Y001084D01*
X038892Y001011D01*
X038844Y000940D01*
X038793Y000870D01*
X038739Y000803D01*
X038683Y000739D01*
X038623Y000677D01*
X038561Y000617D01*
X038497Y000561D01*
X038430Y000507D01*
X038360Y000456D01*
X038289Y000408D01*
X038216Y000364D01*
X038140Y000322D01*
X038063Y000284D01*
X037985Y000250D01*
X037904Y000219D01*
X037823Y000191D01*
X037741Y000167D01*
X037657Y000147D01*
X037573Y000130D01*
X037488Y000117D01*
X037403Y000107D01*
X037317Y000102D01*
X037231Y000100D01*
X002069Y000100D01*
X001983Y000102D01*
X001897Y000107D01*
X001812Y000117D01*
X001727Y000130D01*
X001643Y000147D01*
X001559Y000167D01*
X001477Y000191D01*
X001396Y000219D01*
X001315Y000250D01*
X001237Y000284D01*
X001160Y000322D01*
X001084Y000364D01*
X001011Y000408D01*
X000940Y000456D01*
X000870Y000507D01*
X000803Y000561D01*
X000739Y000617D01*
X000677Y000677D01*
X000617Y000739D01*
X000561Y000803D01*
X000507Y000870D01*
X000456Y000940D01*
X000408Y001011D01*
X000364Y001085D01*
X000322Y001160D01*
X000284Y001237D01*
X000250Y001315D01*
X000219Y001396D01*
X000191Y001477D01*
X000167Y001559D01*
X000147Y001643D01*
X000130Y001727D01*
X000117Y001812D01*
X000107Y001897D01*
X000102Y001983D01*
X000100Y002069D01*
D11*
X007355Y011000D03*
X009245Y011000D03*
X009245Y013700D03*
X007355Y013700D03*
D12*
X007100Y004474D03*
X007100Y003726D03*
X007100Y002774D03*
X007100Y002026D03*
X014600Y002026D03*
X014600Y002774D03*
X014600Y003726D03*
X014600Y004474D03*
X022100Y004474D03*
X022100Y003726D03*
X022100Y002774D03*
X022100Y002026D03*
X029600Y002026D03*
X029600Y002774D03*
X029600Y003726D03*
X029600Y004474D03*
X033600Y006026D03*
X033600Y006774D03*
X033600Y007726D03*
X033600Y008474D03*
X005500Y026926D03*
X005500Y027674D03*
X004600Y027674D03*
X004600Y026926D03*
X001100Y029926D03*
X001100Y030674D03*
X002200Y031226D03*
X002200Y031974D03*
D13*
X001100Y029013D03*
X001100Y028187D03*
D14*
X002200Y037100D03*
X037100Y037100D03*
X037100Y002200D03*
X002200Y002200D03*
D15*
X024126Y026200D03*
X024874Y026200D03*
X006374Y030500D03*
X005626Y030500D03*
X005626Y031400D03*
X006374Y031400D03*
D16*
X003390Y007390D02*
X002610Y007390D01*
X002610Y005410D02*
X003390Y005410D01*
D17*
X005526Y004433D03*
X006274Y004433D03*
X005900Y003567D03*
X013026Y004433D03*
X013774Y004433D03*
X013400Y003567D03*
X020526Y004433D03*
X021274Y004433D03*
X020900Y003567D03*
X028026Y004433D03*
X028774Y004433D03*
X028400Y003567D03*
X035626Y005733D03*
X036374Y005733D03*
X036000Y004867D03*
D18*
X033600Y004513D02*
X033600Y003688D01*
X031600Y003688D02*
X031600Y004513D01*
X034788Y007800D02*
X035613Y007800D01*
X035613Y009800D02*
X034788Y009800D01*
X026100Y004513D02*
X026100Y003688D01*
X024100Y003688D02*
X024100Y004513D01*
X018600Y004513D02*
X018600Y003688D01*
X016600Y003688D02*
X016600Y004513D01*
X011100Y004513D02*
X011100Y003688D01*
X009100Y003688D02*
X009100Y004513D01*
D19*
X030990Y019550D03*
X030990Y020050D03*
X030990Y020550D03*
X030990Y021050D03*
X030990Y021550D03*
X030990Y022050D03*
X030990Y022550D03*
X030990Y023050D03*
X030990Y024850D03*
X030990Y025350D03*
X030990Y025850D03*
X030990Y026350D03*
X030990Y026850D03*
X030990Y027350D03*
X030990Y027850D03*
X030990Y028350D03*
X033410Y028350D03*
X033410Y027850D03*
X033410Y027350D03*
X033410Y026850D03*
X033410Y026350D03*
X033410Y025850D03*
X033410Y025350D03*
X033410Y024850D03*
X033410Y023050D03*
X033410Y022550D03*
X033410Y022050D03*
X033410Y021550D03*
X033410Y021050D03*
X033410Y020550D03*
X033410Y020050D03*
X033410Y019550D03*
D20*
X036800Y020000D02*
X037400Y020000D01*
X037400Y021000D02*
X036800Y021000D01*
X036800Y022000D02*
X037400Y022000D01*
X037400Y023200D02*
X036800Y023200D01*
X036800Y024200D02*
X037400Y024200D01*
X037400Y025200D02*
X036800Y025200D01*
X036800Y026400D02*
X037400Y026400D01*
X037400Y027400D02*
X036800Y027400D01*
X036800Y028400D02*
X037400Y028400D01*
X037400Y029600D02*
X036800Y029600D01*
X036800Y030600D02*
X037400Y030600D01*
X037400Y031600D02*
X036800Y031600D01*
X030500Y031200D02*
X029900Y031200D01*
X029900Y032200D02*
X030500Y032200D01*
X030500Y033200D02*
X029900Y033200D01*
X029900Y035200D02*
X030500Y035200D01*
X030500Y036200D02*
X029900Y036200D01*
X029900Y037200D02*
X030500Y037200D01*
X036800Y018800D02*
X037400Y018800D01*
X037400Y017800D02*
X036800Y017800D01*
X036800Y016800D02*
X037400Y016800D01*
X004600Y028700D02*
X004000Y028700D01*
X004000Y029700D02*
X004600Y029700D01*
X004600Y030700D02*
X004000Y030700D01*
D21*
X002500Y010500D03*
X002500Y009500D03*
D22*
X008378Y007078D03*
X008378Y029913D03*
X027669Y029913D03*
D23*
X026800Y028000D03*
X026800Y027000D03*
X026800Y026000D03*
X026800Y025000D03*
X026800Y024000D03*
X026800Y023000D03*
X026800Y022000D03*
X026800Y021000D03*
X026800Y020000D03*
X026800Y019000D03*
X026800Y018000D03*
X026800Y017000D03*
X026800Y016000D03*
X026800Y015000D03*
X026800Y014000D03*
X026800Y013000D03*
X026800Y012000D03*
X026800Y011000D03*
X026800Y010000D03*
X026800Y009000D03*
X028550Y009000D03*
X028550Y010000D03*
X028550Y011000D03*
X028550Y012000D03*
X028550Y013000D03*
X028550Y014000D03*
X028550Y015000D03*
X028550Y016000D03*
X028550Y017000D03*
X028550Y018000D03*
X028550Y019000D03*
X028550Y020000D03*
X028550Y021000D03*
X028550Y022000D03*
X028550Y023000D03*
X028550Y024000D03*
X028550Y025000D03*
X028550Y026000D03*
X028550Y027000D03*
X028550Y028000D03*
D24*
X023000Y007700D03*
D25*
X023000Y006700D03*
D26*
X003000Y024700D03*
X003000Y034700D03*
D27*
X014800Y029000D03*
X016200Y028000D03*
X014800Y027000D03*
X016200Y026000D03*
X014800Y025000D03*
X016200Y024000D03*
X014800Y023000D03*
X016200Y022000D03*
X014800Y021000D03*
X016200Y020000D03*
X014800Y019000D03*
X016200Y018000D03*
X014800Y017000D03*
X016200Y016000D03*
X014800Y015000D03*
X016200Y014000D03*
X014800Y013000D03*
X016200Y012000D03*
X014800Y011000D03*
X016200Y010000D03*
X020800Y011000D03*
X022200Y010000D03*
X022200Y012000D03*
X020800Y013000D03*
X022200Y014000D03*
X020800Y015000D03*
X022200Y016000D03*
X020800Y017000D03*
X022200Y018000D03*
X020800Y019000D03*
X022200Y020000D03*
X020800Y021000D03*
X022200Y022000D03*
X020800Y023000D03*
X022200Y024000D03*
X020800Y025000D03*
X022200Y026000D03*
X020800Y027000D03*
X022200Y028000D03*
X020800Y029000D03*
D28*
X032050Y014210D03*
X032550Y014210D03*
X033050Y014210D03*
X033550Y014210D03*
X034050Y014210D03*
X034550Y014210D03*
X035050Y014210D03*
X035550Y014210D03*
X035550Y011790D03*
X035050Y011790D03*
X034550Y011790D03*
X034050Y011790D03*
X033550Y011790D03*
X033050Y011790D03*
X032550Y011790D03*
X032050Y011790D03*
D29*
X025100Y017100D03*
X024500Y017100D03*
X023900Y017100D03*
D30*
X013300Y011600D03*
X013300Y011000D03*
X013300Y010400D03*
D31*
X011700Y010100D03*
X010300Y010600D03*
X009200Y011900D03*
X009200Y012800D03*
X010300Y013400D03*
X010500Y012700D03*
X012800Y014300D03*
X013800Y013100D03*
X016400Y015000D03*
X014600Y016000D03*
X014600Y018000D03*
X016300Y019000D03*
X018200Y017000D03*
X019100Y016300D03*
X019700Y015600D03*
X020500Y014000D03*
X022100Y013100D03*
X020500Y012000D03*
X019300Y010700D03*
X017500Y009300D03*
X016700Y011000D03*
X018200Y012900D03*
X022200Y010900D03*
X023400Y009300D03*
X024700Y010800D03*
X025500Y009300D03*
X026400Y006800D03*
X030100Y006800D03*
X031400Y008000D03*
X032100Y010400D03*
X031400Y011500D03*
X030200Y012000D03*
X029600Y013000D03*
X030400Y014700D03*
X032800Y017500D03*
X032800Y018700D03*
X031900Y019600D03*
X032200Y020500D03*
X033900Y018800D03*
X030600Y017900D03*
X025800Y017000D03*
X025300Y018000D03*
X023900Y016263D03*
X024600Y015400D03*
X022200Y017000D03*
X020800Y018000D03*
X019700Y019700D03*
X018200Y020900D03*
X016300Y021100D03*
X014600Y022000D03*
X015800Y023000D03*
X017600Y024000D03*
X018300Y023900D03*
X016500Y025100D03*
X014600Y026000D03*
X016400Y029100D03*
X019600Y029000D03*
X020600Y026000D03*
X022500Y025200D03*
X025400Y025300D03*
X023600Y028200D03*
X024400Y030200D03*
X023300Y031400D03*
X020200Y033900D03*
X020100Y038100D03*
X022600Y038100D03*
X025100Y038100D03*
X027600Y038100D03*
X026800Y034900D03*
X028000Y033600D03*
X032600Y038100D03*
X035100Y038100D03*
X038100Y035100D03*
X038100Y032600D03*
X033400Y030600D03*
X032400Y028500D03*
X034500Y027500D03*
X034500Y026900D03*
X034500Y026300D03*
X034500Y025700D03*
X034400Y024700D03*
X033200Y023900D03*
X034400Y022300D03*
X031000Y024100D03*
X030100Y022300D03*
X025500Y020800D03*
X023300Y021300D03*
X020400Y022100D03*
X026400Y028800D03*
X028700Y028700D03*
X030100Y028900D03*
X030100Y026700D03*
X017600Y038100D03*
X015100Y038100D03*
X012100Y038100D03*
X009600Y038100D03*
X006600Y038100D03*
X004100Y038100D03*
X001100Y035100D03*
X002800Y032600D03*
X004100Y033800D03*
X006100Y032200D03*
X007200Y031800D03*
X007200Y031100D03*
X006700Y029700D03*
X005400Y028600D03*
X003800Y027900D03*
X002200Y027900D03*
X001100Y027500D03*
X001100Y026200D03*
X001100Y023600D03*
X001100Y021100D03*
X001100Y018600D03*
X001100Y016100D03*
X001100Y013600D03*
X001100Y011100D03*
X004400Y008900D03*
X006000Y008900D03*
X006000Y010100D03*
X005000Y011600D03*
X007000Y012400D03*
X009300Y015500D03*
X010500Y016600D03*
X007100Y017400D03*
X005100Y016100D03*
X007600Y020100D03*
X005100Y021100D03*
X007600Y023400D03*
X005600Y025600D03*
X004300Y023900D03*
X007600Y026800D03*
X001000Y031900D03*
X009600Y033800D03*
X015100Y033800D03*
X035100Y015300D03*
X038100Y014600D03*
X038100Y012100D03*
X036300Y012100D03*
X038100Y009600D03*
X038100Y007100D03*
X038100Y004600D03*
X034200Y005500D03*
X034000Y009300D03*
X029700Y010800D03*
X028900Y002800D03*
X021400Y002800D03*
X019800Y006800D03*
X015400Y006800D03*
X011800Y006100D03*
X010300Y008900D03*
X006100Y005900D03*
X005100Y005100D03*
X003100Y004100D03*
X001100Y004100D03*
X006400Y002800D03*
X013900Y002800D03*
M02*
