%
M48
M72
T01C0.0197
T02C0.0276
T03C0.0315
T04C0.0320
T05C0.0400
T06C0.0520
T07C0.0550
T08C0.1000
T09C0.1083
T10C0.1260
%
T01
X27700Y27500
X27700Y25500
X30200Y20800
X27700Y20500
X27700Y18500
X27700Y17500
X27700Y15500
X27700Y10500
T02
X1100Y4100
X3100Y4100
X5100Y5100
X6100Y5900
X6000Y8900
X6000Y10100
X5000Y11600
X7000Y12400
X9200Y12800
X9200Y11900
X10500Y12700
X10300Y13400
X9300Y15500
X10500Y16600
X12800Y14300
X13800Y13100
X16400Y15000
X14600Y16000
X14600Y18000
X16300Y19000
X18200Y17000
X19100Y16300
X19700Y15600
X20500Y14000
X22100Y13100
X20500Y12000
X19300Y10700
X17500Y9300
X16700Y11000
X18200Y12900
X22200Y10900
X23400Y9300
X24700Y10800
X25500Y9300
X26400Y6800
X30100Y6800
X31400Y8000
X32100Y10400
X31400Y11500
X30200Y12000
X29600Y13000
X30400Y14700
X32800Y17500
X32800Y18700
X31900Y19600
X32200Y20500
X33900Y18800
X30600Y17900
X25800Y17000
X25300Y18000
X23900Y16263
X24600Y15400
X22200Y17000
X20800Y18000
X19700Y19700
X18200Y20900
X16300Y21100
X14600Y22000
X15800Y23000
X17600Y24000
X18300Y23900
X16500Y25100
X14600Y26000
X16400Y29100
X19600Y29000
X20600Y26000
X22500Y25200
X25400Y25300
X23600Y28200
X24400Y30200
X23300Y31400
X20200Y33900
X20100Y38100
X22600Y38100
X25100Y38100
X27600Y38100
X26800Y34900
X28000Y33600
X32600Y38100
X35100Y38100
X38100Y35100
X38100Y32600
X33400Y30600
X32400Y28500
X34500Y27500
X34500Y26900
X34500Y26300
X34500Y25700
X34400Y24700
X33200Y23900
X34400Y22300
X31000Y24100
X30100Y22300
X25500Y20800
X23300Y21300
X20400Y22100
X26400Y28800
X28700Y28700
X30100Y28900
X30100Y26700
X17600Y38100
X15100Y38100
X12100Y38100
X9600Y38100
X6600Y38100
X4100Y38100
X1100Y35100
X2800Y32600
X4100Y33800
X6100Y32200
X7200Y31800
X7200Y31100
X6700Y29700
X5400Y28600
X3800Y27900
X2200Y27900
X1100Y27500
X1100Y26200
X1100Y23600
X1100Y21100
X1100Y18600
X1100Y16100
X1100Y13600
X1100Y11100
X4400Y8900
X10300Y8900
X11700Y10100
X10300Y10600
X11800Y6100
X15400Y6800
X13900Y2800
X19800Y6800
X21400Y2800
X28900Y2800
X34200Y5500
X38100Y4600
X38100Y7100
X38100Y9600
X38100Y12100
X36300Y12100
X34000Y9300
X29700Y10800
X35100Y15300
X38100Y14600
X15100Y33800
X9600Y33800
X7600Y26800
X5600Y25600
X4300Y23900
X5100Y21100
X7600Y20100
X7100Y17400
X5100Y16100
X7600Y23400
X1000Y31900
X6400Y2800
T03
X23000Y6700
X23000Y7700
T04
X2500Y9500
X2500Y10500
T05
X4300Y28700
X4300Y29700
X4300Y30700
X30200Y31200
X30200Y32200
X30200Y33200
X30200Y35200
X30200Y36200
X30200Y37200
X37100Y31600
X37100Y30600
X37100Y29600
X37100Y28400
X37100Y27400
X37100Y26400
X37100Y25200
X37100Y24200
X37100Y23200
X37100Y22000
X37100Y21000
X37100Y20000
X37100Y18800
X37100Y17800
X37100Y16800
T06
X3000Y5410
X3000Y7390
T07
X9100Y4100
X11100Y4100
X16600Y4100
X18600Y4100
X24100Y4100
X26100Y4100
X31600Y4100
X33600Y4100
X35200Y7800
X35200Y9800
T08
X3000Y24700
X3000Y34700
T09
X8378Y29913
X27669Y29913
X8378Y7078
T10
X2200Y2200
X37100Y2200
X37100Y37100
X2200Y37100
M30
