G75*
%MOIN*%
%OFA0B0*%
%FSLAX24Y24*%
%IPPOS*%
%LPD*%
%AMOC8*
5,1,8,0,0,1.08239X$1,22.5*
%
%ADD10C,0.0000*%
D10*
X000100Y002000D02*
X000100Y037231D01*
X000102Y037317D01*
X000107Y037403D01*
X000117Y037488D01*
X000130Y037573D01*
X000147Y037657D01*
X000167Y037741D01*
X000191Y037823D01*
X000219Y037904D01*
X000250Y037985D01*
X000284Y038063D01*
X000322Y038140D01*
X000364Y038216D01*
X000408Y038289D01*
X000456Y038360D01*
X000507Y038430D01*
X000561Y038497D01*
X000617Y038561D01*
X000677Y038623D01*
X000739Y038683D01*
X000803Y038739D01*
X000870Y038793D01*
X000940Y038844D01*
X001011Y038892D01*
X001085Y038936D01*
X001160Y038978D01*
X001237Y039016D01*
X001315Y039050D01*
X001396Y039081D01*
X001477Y039109D01*
X001559Y039133D01*
X001643Y039153D01*
X001727Y039170D01*
X001812Y039183D01*
X001897Y039193D01*
X001983Y039198D01*
X002069Y039200D01*
X037231Y039200D01*
X037317Y039198D01*
X037403Y039193D01*
X037488Y039183D01*
X037573Y039170D01*
X037657Y039153D01*
X037741Y039133D01*
X037823Y039109D01*
X037904Y039081D01*
X037985Y039050D01*
X038063Y039016D01*
X038140Y038978D01*
X038216Y038936D01*
X038289Y038892D01*
X038360Y038844D01*
X038430Y038793D01*
X038497Y038739D01*
X038561Y038683D01*
X038623Y038623D01*
X038683Y038561D01*
X038739Y038497D01*
X038793Y038430D01*
X038844Y038360D01*
X038892Y038289D01*
X038936Y038216D01*
X038978Y038140D01*
X039016Y038063D01*
X039050Y037985D01*
X039081Y037904D01*
X039109Y037823D01*
X039133Y037741D01*
X039153Y037657D01*
X039170Y037573D01*
X039183Y037488D01*
X039193Y037403D01*
X039198Y037317D01*
X039200Y037231D01*
X039200Y002069D01*
X039198Y001983D01*
X039193Y001897D01*
X039183Y001812D01*
X039170Y001727D01*
X039153Y001643D01*
X039133Y001559D01*
X039109Y001477D01*
X039081Y001396D01*
X039050Y001315D01*
X039016Y001237D01*
X038978Y001160D01*
X038936Y001084D01*
X038892Y001011D01*
X038844Y000940D01*
X038793Y000870D01*
X038739Y000803D01*
X038683Y000739D01*
X038623Y000677D01*
X038561Y000617D01*
X038497Y000561D01*
X038430Y000507D01*
X038360Y000456D01*
X038289Y000408D01*
X038216Y000364D01*
X038140Y000322D01*
X038063Y000284D01*
X037985Y000250D01*
X037904Y000219D01*
X037823Y000191D01*
X037741Y000167D01*
X037657Y000147D01*
X037573Y000130D01*
X037488Y000117D01*
X037403Y000107D01*
X037317Y000102D01*
X037231Y000100D01*
X002069Y000100D01*
X001983Y000102D01*
X001897Y000107D01*
X001812Y000117D01*
X001727Y000130D01*
X001643Y000147D01*
X001559Y000167D01*
X001477Y000191D01*
X001396Y000219D01*
X001315Y000250D01*
X001237Y000284D01*
X001160Y000322D01*
X001084Y000364D01*
X001011Y000408D01*
X000940Y000456D01*
X000870Y000507D01*
X000803Y000561D01*
X000739Y000617D01*
X000677Y000677D01*
X000617Y000739D01*
X000561Y000803D01*
X000507Y000870D01*
X000456Y000940D01*
X000408Y001011D01*
X000364Y001085D01*
X000322Y001160D01*
X000284Y001237D01*
X000250Y001315D01*
X000219Y001396D01*
X000191Y001477D01*
X000167Y001559D01*
X000147Y001643D01*
X000130Y001727D01*
X000117Y001812D01*
X000107Y001897D01*
X000102Y001983D01*
X000100Y002069D01*
M02*
