G75*
%MOIN*%
%OFA0B0*%
%FSLAX24Y24*%
%IPPOS*%
%LPD*%
%AMOC8*
5,1,8,0,0,1.08239X$1,22.5*
%
%ADD10C,0.0000*%
%ADD11R,0.1181X0.0551*%
%ADD12R,0.0591X0.0512*%
%ADD13R,0.0472X0.0472*%
%ADD14R,0.0512X0.0591*%
%ADD15R,0.0394X0.0551*%
%ADD16R,0.0800X0.0260*%
%ADD17R,0.1200X0.0450*%
%ADD18R,0.1400X0.0500*%
%ADD19R,0.0260X0.0800*%
%ADD20R,0.0460X0.0630*%
%ADD21R,0.0630X0.0460*%
D10*
X000100Y002000D02*
X000100Y037231D01*
X000102Y037317D01*
X000107Y037403D01*
X000117Y037488D01*
X000130Y037573D01*
X000147Y037657D01*
X000167Y037741D01*
X000191Y037823D01*
X000219Y037904D01*
X000250Y037985D01*
X000284Y038063D01*
X000322Y038140D01*
X000364Y038216D01*
X000408Y038289D01*
X000456Y038360D01*
X000507Y038430D01*
X000561Y038497D01*
X000617Y038561D01*
X000677Y038623D01*
X000739Y038683D01*
X000803Y038739D01*
X000870Y038793D01*
X000940Y038844D01*
X001011Y038892D01*
X001085Y038936D01*
X001160Y038978D01*
X001237Y039016D01*
X001315Y039050D01*
X001396Y039081D01*
X001477Y039109D01*
X001559Y039133D01*
X001643Y039153D01*
X001727Y039170D01*
X001812Y039183D01*
X001897Y039193D01*
X001983Y039198D01*
X002069Y039200D01*
X037231Y039200D01*
X037317Y039198D01*
X037403Y039193D01*
X037488Y039183D01*
X037573Y039170D01*
X037657Y039153D01*
X037741Y039133D01*
X037823Y039109D01*
X037904Y039081D01*
X037985Y039050D01*
X038063Y039016D01*
X038140Y038978D01*
X038216Y038936D01*
X038289Y038892D01*
X038360Y038844D01*
X038430Y038793D01*
X038497Y038739D01*
X038561Y038683D01*
X038623Y038623D01*
X038683Y038561D01*
X038739Y038497D01*
X038793Y038430D01*
X038844Y038360D01*
X038892Y038289D01*
X038936Y038216D01*
X038978Y038140D01*
X039016Y038063D01*
X039050Y037985D01*
X039081Y037904D01*
X039109Y037823D01*
X039133Y037741D01*
X039153Y037657D01*
X039170Y037573D01*
X039183Y037488D01*
X039193Y037403D01*
X039198Y037317D01*
X039200Y037231D01*
X039200Y002069D01*
X039198Y001983D01*
X039193Y001897D01*
X039183Y001812D01*
X039170Y001727D01*
X039153Y001643D01*
X039133Y001559D01*
X039109Y001477D01*
X039081Y001396D01*
X039050Y001315D01*
X039016Y001237D01*
X038978Y001160D01*
X038936Y001084D01*
X038892Y001011D01*
X038844Y000940D01*
X038793Y000870D01*
X038739Y000803D01*
X038683Y000739D01*
X038623Y000677D01*
X038561Y000617D01*
X038497Y000561D01*
X038430Y000507D01*
X038360Y000456D01*
X038289Y000408D01*
X038216Y000364D01*
X038140Y000322D01*
X038063Y000284D01*
X037985Y000250D01*
X037904Y000219D01*
X037823Y000191D01*
X037741Y000167D01*
X037657Y000147D01*
X037573Y000130D01*
X037488Y000117D01*
X037403Y000107D01*
X037317Y000102D01*
X037231Y000100D01*
X002069Y000100D01*
X001983Y000102D01*
X001897Y000107D01*
X001812Y000117D01*
X001727Y000130D01*
X001643Y000147D01*
X001559Y000167D01*
X001477Y000191D01*
X001396Y000219D01*
X001315Y000250D01*
X001237Y000284D01*
X001160Y000322D01*
X001084Y000364D01*
X001011Y000408D01*
X000940Y000456D01*
X000870Y000507D01*
X000803Y000561D01*
X000739Y000617D01*
X000677Y000677D01*
X000617Y000739D01*
X000561Y000803D01*
X000507Y000870D01*
X000456Y000940D01*
X000408Y001011D01*
X000364Y001085D01*
X000322Y001160D01*
X000284Y001237D01*
X000250Y001315D01*
X000219Y001396D01*
X000191Y001477D01*
X000167Y001559D01*
X000147Y001643D01*
X000130Y001727D01*
X000117Y001812D01*
X000107Y001897D01*
X000102Y001983D01*
X000100Y002069D01*
D11*
X007355Y011000D03*
X009245Y011000D03*
X009245Y013700D03*
X007355Y013700D03*
D12*
X007100Y004474D03*
X007100Y003726D03*
X007100Y002774D03*
X007100Y002026D03*
X014600Y002026D03*
X014600Y002774D03*
X014600Y003726D03*
X014600Y004474D03*
X022100Y004474D03*
X022100Y003726D03*
X022100Y002774D03*
X022100Y002026D03*
X029600Y002026D03*
X029600Y002774D03*
X029600Y003726D03*
X029600Y004474D03*
X033600Y006026D03*
X033600Y006774D03*
X033600Y007726D03*
X033600Y008474D03*
X005500Y026926D03*
X005500Y027674D03*
X004600Y027674D03*
X004600Y026926D03*
X001100Y029926D03*
X001100Y030674D03*
X002200Y031226D03*
X002200Y031974D03*
D13*
X001100Y029013D03*
X001100Y028187D03*
D14*
X005626Y030500D03*
X006374Y030500D03*
X006374Y031400D03*
X005626Y031400D03*
X024126Y026200D03*
X024874Y026200D03*
D15*
X035626Y005733D03*
X036374Y005733D03*
X036000Y004867D03*
X028774Y004433D03*
X028026Y004433D03*
X028400Y003567D03*
X021274Y004433D03*
X020526Y004433D03*
X020900Y003567D03*
X013774Y004433D03*
X013026Y004433D03*
X013400Y003567D03*
X006274Y004433D03*
X005526Y004433D03*
X005900Y003567D03*
D16*
X030990Y019550D03*
X030990Y020050D03*
X030990Y020550D03*
X030990Y021050D03*
X030990Y021550D03*
X030990Y022050D03*
X030990Y022550D03*
X030990Y023050D03*
X030990Y024850D03*
X030990Y025350D03*
X030990Y025850D03*
X030990Y026350D03*
X030990Y026850D03*
X030990Y027350D03*
X030990Y027850D03*
X030990Y028350D03*
X033410Y028350D03*
X033410Y027850D03*
X033410Y027350D03*
X033410Y026850D03*
X033410Y026350D03*
X033410Y025850D03*
X033410Y025350D03*
X033410Y024850D03*
X033410Y023050D03*
X033410Y022550D03*
X033410Y022050D03*
X033410Y021550D03*
X033410Y021050D03*
X033410Y020550D03*
X033410Y020050D03*
X033410Y019550D03*
D17*
X028550Y020000D03*
X028550Y021000D03*
X028550Y022000D03*
X028550Y023000D03*
X028550Y024000D03*
X028550Y025000D03*
X028550Y026000D03*
X028550Y027000D03*
X028550Y028000D03*
X026800Y028000D03*
X026800Y027000D03*
X026800Y026000D03*
X026800Y025000D03*
X026800Y024000D03*
X026800Y023000D03*
X026800Y022000D03*
X026800Y021000D03*
X026800Y020000D03*
X026800Y019000D03*
X026800Y018000D03*
X026800Y017000D03*
X026800Y016000D03*
X026800Y015000D03*
X026800Y014000D03*
X026800Y013000D03*
X026800Y012000D03*
X026800Y011000D03*
X026800Y010000D03*
X026800Y009000D03*
X028550Y009000D03*
X028550Y010000D03*
X028550Y011000D03*
X028550Y012000D03*
X028550Y013000D03*
X028550Y014000D03*
X028550Y015000D03*
X028550Y016000D03*
X028550Y017000D03*
X028550Y018000D03*
X028550Y019000D03*
D18*
X022200Y018000D03*
X020800Y017000D03*
X022200Y016000D03*
X020800Y015000D03*
X022200Y014000D03*
X020800Y013000D03*
X022200Y012000D03*
X020800Y011000D03*
X022200Y010000D03*
X016200Y010000D03*
X014800Y011000D03*
X016200Y012000D03*
X014800Y013000D03*
X016200Y014000D03*
X014800Y015000D03*
X016200Y016000D03*
X014800Y017000D03*
X016200Y018000D03*
X014800Y019000D03*
X016200Y020000D03*
X014800Y021000D03*
X016200Y022000D03*
X014800Y023000D03*
X016200Y024000D03*
X014800Y025000D03*
X016200Y026000D03*
X014800Y027000D03*
X016200Y028000D03*
X014800Y029000D03*
X020800Y029000D03*
X022200Y028000D03*
X020800Y027000D03*
X022200Y026000D03*
X020800Y025000D03*
X022200Y024000D03*
X020800Y023000D03*
X022200Y022000D03*
X020800Y021000D03*
X022200Y020000D03*
X020800Y019000D03*
D19*
X032050Y014210D03*
X032550Y014210D03*
X033050Y014210D03*
X033550Y014210D03*
X034050Y014210D03*
X034550Y014210D03*
X035050Y014210D03*
X035550Y014210D03*
X035550Y011790D03*
X035050Y011790D03*
X034550Y011790D03*
X034050Y011790D03*
X033550Y011790D03*
X033050Y011790D03*
X032550Y011790D03*
X032050Y011790D03*
D20*
X025100Y017100D03*
X024500Y017100D03*
X023900Y017100D03*
D21*
X013300Y011600D03*
X013300Y011000D03*
X013300Y010400D03*
M02*
