G75*
%MOIN*%
%OFA0B0*%
%FSLAX24Y24*%
%IPPOS*%
%LPD*%
%AMOC8*
5,1,8,0,0,1.08239X$1,22.5*
%
%ADD10C,0.0000*%
%ADD11C,0.0040*%
%ADD12C,0.0080*%
%ADD13R,0.0266X0.0965*%
%ADD14C,0.0060*%
%ADD15R,0.0965X0.0266*%
D10*
X000100Y002000D02*
X000100Y037231D01*
X000102Y037317D01*
X000107Y037403D01*
X000117Y037488D01*
X000130Y037573D01*
X000147Y037657D01*
X000167Y037741D01*
X000191Y037823D01*
X000219Y037904D01*
X000250Y037985D01*
X000284Y038063D01*
X000322Y038140D01*
X000364Y038216D01*
X000408Y038289D01*
X000456Y038360D01*
X000507Y038430D01*
X000561Y038497D01*
X000617Y038561D01*
X000677Y038623D01*
X000739Y038683D01*
X000803Y038739D01*
X000870Y038793D01*
X000940Y038844D01*
X001011Y038892D01*
X001085Y038936D01*
X001160Y038978D01*
X001237Y039016D01*
X001315Y039050D01*
X001396Y039081D01*
X001477Y039109D01*
X001559Y039133D01*
X001643Y039153D01*
X001727Y039170D01*
X001812Y039183D01*
X001897Y039193D01*
X001983Y039198D01*
X002069Y039200D01*
X037231Y039200D01*
X037317Y039198D01*
X037403Y039193D01*
X037488Y039183D01*
X037573Y039170D01*
X037657Y039153D01*
X037741Y039133D01*
X037823Y039109D01*
X037904Y039081D01*
X037985Y039050D01*
X038063Y039016D01*
X038140Y038978D01*
X038216Y038936D01*
X038289Y038892D01*
X038360Y038844D01*
X038430Y038793D01*
X038497Y038739D01*
X038561Y038683D01*
X038623Y038623D01*
X038683Y038561D01*
X038739Y038497D01*
X038793Y038430D01*
X038844Y038360D01*
X038892Y038289D01*
X038936Y038216D01*
X038978Y038140D01*
X039016Y038063D01*
X039050Y037985D01*
X039081Y037904D01*
X039109Y037823D01*
X039133Y037741D01*
X039153Y037657D01*
X039170Y037573D01*
X039183Y037488D01*
X039193Y037403D01*
X039198Y037317D01*
X039200Y037231D01*
X039200Y002069D01*
X039198Y001983D01*
X039193Y001897D01*
X039183Y001812D01*
X039170Y001727D01*
X039153Y001643D01*
X039133Y001559D01*
X039109Y001477D01*
X039081Y001396D01*
X039050Y001315D01*
X039016Y001237D01*
X038978Y001160D01*
X038936Y001084D01*
X038892Y001011D01*
X038844Y000940D01*
X038793Y000870D01*
X038739Y000803D01*
X038683Y000739D01*
X038623Y000677D01*
X038561Y000617D01*
X038497Y000561D01*
X038430Y000507D01*
X038360Y000456D01*
X038289Y000408D01*
X038216Y000364D01*
X038140Y000322D01*
X038063Y000284D01*
X037985Y000250D01*
X037904Y000219D01*
X037823Y000191D01*
X037741Y000167D01*
X037657Y000147D01*
X037573Y000130D01*
X037488Y000117D01*
X037403Y000107D01*
X037317Y000102D01*
X037231Y000100D01*
X002069Y000100D01*
X001983Y000102D01*
X001897Y000107D01*
X001812Y000117D01*
X001727Y000130D01*
X001643Y000147D01*
X001559Y000167D01*
X001477Y000191D01*
X001396Y000219D01*
X001315Y000250D01*
X001237Y000284D01*
X001160Y000322D01*
X001084Y000364D01*
X001011Y000408D01*
X000940Y000456D01*
X000870Y000507D01*
X000803Y000561D01*
X000739Y000617D01*
X000677Y000677D01*
X000617Y000739D01*
X000561Y000803D01*
X000507Y000870D01*
X000456Y000940D01*
X000408Y001011D01*
X000364Y001085D01*
X000322Y001160D01*
X000284Y001237D01*
X000250Y001315D01*
X000219Y001396D01*
X000191Y001477D01*
X000167Y001559D01*
X000147Y001643D01*
X000130Y001727D01*
X000117Y001812D01*
X000107Y001897D01*
X000102Y001983D01*
X000100Y002069D01*
D11*
X004620Y002056D02*
X004773Y001903D01*
X004773Y001979D02*
X004773Y001749D01*
X004620Y001749D02*
X005080Y001749D01*
X005080Y001979D01*
X005004Y002056D01*
X004850Y002056D01*
X004773Y001979D01*
X004697Y002210D02*
X004620Y002286D01*
X004620Y002440D01*
X004697Y002517D01*
X004773Y002517D01*
X004850Y002440D01*
X004850Y002210D01*
X004697Y002210D01*
X004850Y002210D02*
X005004Y002363D01*
X005080Y002517D01*
X008270Y002477D02*
X008423Y002323D01*
X008270Y002247D02*
X008347Y002170D01*
X008654Y002170D01*
X008730Y002247D01*
X008730Y002400D01*
X008654Y002477D01*
X008347Y002477D01*
X008270Y002400D01*
X008270Y002247D01*
X008500Y002630D02*
X008500Y002937D01*
X008270Y002861D02*
X008730Y002861D01*
X008500Y002630D01*
X009883Y001630D02*
X010190Y001630D01*
X010190Y001400D01*
X010037Y001477D01*
X009960Y001477D01*
X009883Y001400D01*
X009883Y001247D01*
X009960Y001170D01*
X010114Y001170D01*
X010190Y001247D01*
X010344Y001247D02*
X010421Y001170D01*
X010651Y001170D01*
X010651Y001630D01*
X010421Y001630D01*
X010344Y001554D01*
X010344Y001247D01*
X012120Y001489D02*
X012580Y001489D01*
X012580Y001719D01*
X012504Y001796D01*
X012350Y001796D01*
X012273Y001719D01*
X012273Y001489D01*
X012273Y001642D02*
X012120Y001796D01*
X012120Y001949D02*
X012427Y002256D01*
X012504Y002256D01*
X012580Y002179D01*
X012580Y002026D01*
X012504Y001949D01*
X012120Y001949D02*
X012120Y002256D01*
X012120Y002410D02*
X012120Y002717D01*
X012120Y002563D02*
X012580Y002563D01*
X012427Y002410D01*
X015770Y002377D02*
X015923Y002223D01*
X015770Y002147D02*
X015847Y002070D01*
X016154Y002070D01*
X016230Y002147D01*
X016230Y002300D01*
X016154Y002377D01*
X015847Y002377D01*
X015770Y002300D01*
X015770Y002147D01*
X015770Y002530D02*
X015770Y002837D01*
X015770Y002684D02*
X016230Y002684D01*
X016077Y002530D01*
X016077Y002991D02*
X016230Y003144D01*
X015770Y003144D01*
X015770Y002991D02*
X015770Y003298D01*
X017360Y001530D02*
X017590Y001300D01*
X017283Y001300D01*
X017360Y001070D02*
X017360Y001530D01*
X017744Y001454D02*
X017821Y001530D01*
X018051Y001530D01*
X018051Y001070D01*
X017821Y001070D01*
X017744Y001147D01*
X017744Y001454D01*
X019620Y001389D02*
X020080Y001389D01*
X020080Y001619D01*
X020004Y001696D01*
X019850Y001696D01*
X019773Y001619D01*
X019773Y001389D01*
X019773Y001542D02*
X019620Y001696D01*
X019620Y001849D02*
X019620Y002156D01*
X019620Y002003D02*
X020080Y002003D01*
X019927Y001849D01*
X020004Y002310D02*
X020080Y002386D01*
X020080Y002540D01*
X020004Y002617D01*
X019927Y002617D01*
X019850Y002540D01*
X019773Y002617D01*
X019697Y002617D01*
X019620Y002540D01*
X019620Y002386D01*
X019697Y002310D01*
X019850Y002463D02*
X019850Y002540D01*
X023270Y002577D02*
X023423Y002423D01*
X023270Y002347D02*
X023347Y002270D01*
X023654Y002270D01*
X023730Y002347D01*
X023730Y002500D01*
X023654Y002577D01*
X023347Y002577D01*
X023270Y002500D01*
X023270Y002347D01*
X023270Y002730D02*
X023347Y002730D01*
X023654Y003037D01*
X023730Y003037D01*
X023730Y002730D01*
X024860Y001530D02*
X024783Y001454D01*
X024783Y001377D01*
X024860Y001300D01*
X024783Y001223D01*
X024783Y001147D01*
X024860Y001070D01*
X025014Y001070D01*
X025090Y001147D01*
X025244Y001147D02*
X025244Y001454D01*
X025321Y001530D01*
X025551Y001530D01*
X025551Y001070D01*
X025321Y001070D01*
X025244Y001147D01*
X025090Y001454D02*
X025014Y001530D01*
X024860Y001530D01*
X024860Y001300D02*
X024937Y001300D01*
X027120Y001749D02*
X027580Y001749D01*
X027580Y001979D01*
X027504Y002056D01*
X027350Y002056D01*
X027273Y001979D01*
X027273Y001749D01*
X027273Y001903D02*
X027120Y002056D01*
X027197Y002210D02*
X027120Y002286D01*
X027120Y002440D01*
X027197Y002517D01*
X027350Y002517D01*
X027427Y002440D01*
X027427Y002363D01*
X027350Y002210D01*
X027580Y002210D01*
X027580Y002517D01*
X030770Y002500D02*
X030770Y002347D01*
X030847Y002270D01*
X031154Y002270D01*
X031230Y002347D01*
X031230Y002500D01*
X031154Y002577D01*
X030847Y002577D01*
X030770Y002500D01*
X030770Y002577D02*
X030923Y002423D01*
X030847Y002730D02*
X030770Y002807D01*
X030770Y002961D01*
X030847Y003037D01*
X030923Y003037D01*
X031000Y002961D01*
X031000Y002884D01*
X031000Y002961D02*
X031077Y003037D01*
X031154Y003037D01*
X031230Y002961D01*
X031230Y002807D01*
X031154Y002730D01*
X032283Y001554D02*
X032360Y001630D01*
X032514Y001630D01*
X032590Y001554D01*
X032744Y001554D02*
X032821Y001630D01*
X033051Y001630D01*
X033051Y001170D01*
X032821Y001170D01*
X032744Y001247D01*
X032744Y001554D01*
X032590Y001170D02*
X032283Y001170D01*
X032283Y001477D02*
X032283Y001554D01*
X032283Y001477D02*
X032590Y001170D01*
X037620Y004489D02*
X038080Y004489D01*
X038080Y004719D01*
X038004Y004796D01*
X037850Y004796D01*
X037773Y004719D01*
X037773Y004489D01*
X037773Y004642D02*
X037620Y004796D01*
X037620Y004949D02*
X037620Y005256D01*
X037620Y005103D02*
X038080Y005103D01*
X037927Y004949D01*
X037850Y005410D02*
X037850Y005717D01*
X037620Y005640D02*
X038080Y005640D01*
X037850Y005410D01*
X037130Y006147D02*
X037130Y006300D01*
X037054Y006377D01*
X036747Y006377D01*
X036670Y006300D01*
X036670Y006147D01*
X036747Y006070D01*
X037054Y006070D01*
X037130Y006147D01*
X036823Y006223D02*
X036670Y006377D01*
X036747Y006530D02*
X036823Y006530D01*
X036900Y006607D01*
X036900Y006761D01*
X036823Y006837D01*
X036747Y006837D01*
X036670Y006761D01*
X036670Y006607D01*
X036747Y006530D01*
X036900Y006607D02*
X036977Y006530D01*
X037054Y006530D01*
X037130Y006607D01*
X037130Y006761D01*
X037054Y006837D01*
X036977Y006837D01*
X036900Y006761D01*
X037870Y008320D02*
X037870Y008550D01*
X037947Y008627D01*
X038254Y008627D01*
X038330Y008550D01*
X038330Y008320D01*
X037870Y008320D01*
X037947Y008780D02*
X037870Y008857D01*
X037870Y009011D01*
X037947Y009087D01*
X038023Y009087D01*
X038100Y009011D01*
X038100Y008780D01*
X037947Y008780D01*
X038100Y008780D02*
X038254Y008934D01*
X038330Y009087D01*
X003130Y012020D02*
X003130Y012480D01*
X002900Y012480D01*
X002823Y012404D01*
X002823Y012250D01*
X002900Y012173D01*
X003130Y012173D01*
X002977Y012173D02*
X002823Y012020D01*
X002670Y012020D02*
X002363Y012327D01*
X002363Y012404D01*
X002439Y012480D01*
X002593Y012480D01*
X002670Y012404D01*
X002670Y012020D02*
X002363Y012020D01*
X002209Y012097D02*
X002132Y012020D01*
X001979Y012020D01*
X001902Y012097D01*
X001902Y012404D01*
X001979Y012480D01*
X002132Y012480D01*
X002209Y012404D01*
X002209Y012327D01*
X002132Y012250D01*
X001902Y012250D01*
X001902Y030448D02*
X001441Y030448D01*
X001441Y030678D01*
X001518Y030755D01*
X001825Y030755D01*
X001902Y030678D01*
X001902Y030448D01*
X001748Y030908D02*
X001902Y031061D01*
X001441Y031061D01*
X001441Y030908D02*
X001441Y031215D01*
D12*
X002600Y030594D02*
X002994Y030053D01*
X002206Y030053D01*
X002600Y030594D01*
X009693Y002812D02*
X010504Y002812D01*
X010504Y001788D02*
X009693Y001788D01*
X017193Y001788D02*
X018004Y001788D01*
X018004Y002812D02*
X017193Y002812D01*
X024693Y002812D02*
X025504Y002812D01*
X025504Y001788D02*
X024693Y001788D01*
X032193Y001788D02*
X033004Y001788D01*
X033004Y002812D02*
X032193Y002812D01*
X036588Y008393D02*
X036588Y009204D01*
X037612Y009204D02*
X037612Y008393D01*
D13*
X032314Y002300D03*
X024814Y002300D03*
X017314Y002300D03*
X009814Y002300D03*
D14*
X003070Y029859D02*
X003070Y030722D01*
X002130Y030732D02*
X002130Y029859D01*
D15*
X037100Y008514D03*
M02*
